<svg clip-rule="evenodd" fill-rule="evenodd" stroke-linejoin="round" stroke-miterlimit="2" viewBox="0 0 560 400" xmlns="http://www.w3.org/2000/svg" xmlns:xlink="http://www.w3.org/1999/xlink"><linearGradient id="a" gradientTransform="matrix(12.5 25 -25 12.5 37.5 25)" gradientUnits="userSpaceOnUse" x1="0" x2="1" y1="0" y2="0"><stop offset="0" stop-color="#def2fe"/><stop offset="1" stop-color="#dbf1fe"/></linearGradient><linearGradient id="b" gradientTransform="matrix(12.5 25 -25 12.5 25 0)" gradientUnits="userSpaceOnUse" x1="0" x2="1" y1="0" y2="0"><stop offset="0" stop-color="#57bcfd"/><stop offset="1" stop-color="#51b5fd"/></linearGradient><linearGradient id="c" gradientTransform="matrix(6.25 50 -50 6.25 9.375 0)" gradientUnits="userSpaceOnUse" x1="0" x2="1" y1="0" y2="0"><stop offset="0" stop-color="#1ca7fd"/><stop offset="1" stop-color="#148cfc"/></linearGradient><g transform="matrix(2.13472 0 0 2.13472 100 146.632)"><path d="m50 25v11.646l-.003.602c-.041 4.191-.521 5.801-1.388 7.423-.908 1.698-2.24 3.03-3.938 3.938l-.226.118c-1.627.832-3.362 1.273-7.799 1.273h-11.646v-25z" fill="url(#a)"/><path d="m44.671 1.391c1.698.908 3.03 2.24 3.938 3.938l.118.226c.832 1.627 1.273 3.362 1.273 7.799v11.646h-25v-25h11.646c4.644 0 6.328.483 8.025 1.391z" fill="url(#b)"/><path d="m25 0v50h-11.646l-.602-.003c-4.191-.041-5.801-.521-7.423-1.388-1.698-.908-3.03-2.24-3.938-3.938l-.118-.226c-.832-1.627-1.273-3.362-1.273-7.799v-23.292c0-4.644.483-6.328 1.391-8.025.908-1.698 2.24-3.03 3.938-3.938l.226-.118c1.627-.832 3.362-1.273 7.799-1.273z" fill="url(#c)"/><path d="m85.26 18.824c-.523-.709-1.204-1.227-2.044-1.554s-1.661-.49-2.464-.49c-1.027 0-1.96.187-2.8.56s-1.563.887-2.17 1.54-1.073 1.419-1.4 2.296-.49 1.829-.49 2.856c0 1.083.159 2.072.476 2.968s.77 1.666 1.358 2.31 1.293 1.143 2.114 1.498 1.745.532 2.772.532c1.064 0 2.007-.21 2.828-.63s1.484-.975 1.988-1.666l2.828 1.988c-.877 1.101-1.951 1.955-3.22 2.562s-2.753.91-4.452.91c-1.549 0-2.973-.257-4.27-.77s-2.413-1.232-3.346-2.156-1.661-2.025-2.184-3.304-.784-2.693-.784-4.242c0-1.587.275-3.019.826-4.298s1.307-2.366 2.268-3.262 2.095-1.587 3.402-2.072 2.725-.728 4.256-.728c.635 0 1.297.061 1.988.182s1.353.308 1.988.56 1.232.565 1.792.938 1.036.821 1.428 1.344zm5.068-5.992h3.36v21.168h-3.36zm15.912 13.104c0-.429-.061-.84-.182-1.232s-.313-.737-.574-1.036-.593-.537-.994-.714-.873-.266-1.414-.266c-1.008 0-1.862.303-2.562.91s-1.087 1.386-1.162 2.338zm3.36 1.512v.448c0 .149-.009.299-.028.448h-10.22c.037.485.163.929.378 1.33s.499.747.854 1.036.756.518 1.204.686.915.252 1.4.252c.84 0 1.549-.154 2.128-.462s1.055-.733 1.428-1.274l2.24 1.792c-1.325 1.792-3.248 2.688-5.768 2.688-1.045 0-2.007-.163-2.884-.49s-1.638-.789-2.282-1.386-1.148-1.33-1.512-2.198-.546-1.853-.546-2.954c0-1.083.182-2.067.546-2.954s.863-1.643 1.498-2.268 1.386-1.111 2.254-1.456 1.806-.518 2.814-.518c.933 0 1.797.154 2.59.462s1.479.765 2.058 1.372 1.031 1.363 1.358 2.268.49 1.965.49 3.178zm11.424 4.844h-.084c-.336.597-.877 1.087-1.624 1.47s-1.596.574-2.548.574c-.541 0-1.106-.07-1.694-.21s-1.129-.373-1.624-.7-.905-.756-1.232-1.288-.49-1.19-.49-1.974c0-1.008.285-1.811.854-2.408s1.302-1.055 2.198-1.372 1.89-.527 2.982-.63 2.161-.154 3.206-.154v-.336c0-.84-.303-1.461-.91-1.862s-1.33-.602-2.17-.602c-.709 0-1.391.149-2.044.448s-1.195.663-1.624 1.092l-1.736-2.044c.765-.709 1.647-1.241 2.646-1.596s2.011-.532 3.038-.532c1.195 0 2.179.168 2.954.504s1.386.775 1.834 1.316.761 1.148.938 1.82.266 1.344.266 2.016v8.176h-3.136zm-.056-4.424h-.756c-.541 0-1.111.023-1.708.07s-1.148.149-1.652.308-.924.383-1.26.672-.504.686-.504 1.19c0 .317.07.583.21.798s.322.387.546.518.476.224.756.28.56.084.84.084c1.157 0 2.035-.308 2.632-.924s.896-1.456.896-2.52zm6.112-7.308h3.22v2.24h.056c.373-.784.896-1.419 1.568-1.904s1.456-.728 2.352-.728c.131 0 .271.005.42.014s.28.033.392.07v3.08c-.224-.056-.415-.093-.574-.112s-.313-.028-.462-.028c-.765 0-1.381.14-1.848.42s-.831.616-1.092 1.008-.439.793-.532 1.204-.14.737-.14.98v7.196h-3.36zm13.608-7.728v9.436h.084c.168-.224.383-.457.644-.7s.574-.467.938-.672.789-.378 1.274-.518 1.036-.21 1.652-.21c.952 0 1.829.182 2.632.546s1.493.863 2.072 1.498 1.027 1.381 1.344 2.24.476 1.783.476 2.772-.154 1.918-.462 2.786-.747 1.624-1.316 2.268-1.26 1.157-2.072 1.54-1.731.574-2.758.574c-.952 0-1.843-.205-2.674-.616s-1.479-1.008-1.946-1.792h-.056v2.016h-3.192v-21.168zm7.7 14.392c0-.523-.079-1.041-.238-1.554s-.397-.975-.714-1.386-.719-.742-1.204-.994-1.055-.378-1.708-.378c-.616 0-1.167.131-1.652.392s-.901.597-1.246 1.008-.607.877-.784 1.4-.266 1.045-.266 1.568.089 1.041.266 1.554.439.975.784 1.386.761.742 1.246.994 1.036.378 1.652.378c.653 0 1.223-.131 1.708-.392s.887-.597 1.204-1.008.555-.877.714-1.4.238-1.045.238-1.568zm5.72-6.664h3.36v13.44h-3.36zm-.476-4.564c0-.541.201-1.013.602-1.414s.91-.602 1.526-.602 1.134.191 1.554.574.63.863.63 1.442-.21 1.059-.63 1.442-.938.574-1.554.574-1.125-.201-1.526-.602-.602-.873-.602-1.414zm5.992 7.252v-2.688h2.352v-3.892h3.304v3.892h3.36v2.688h-3.36v6.244c0 .597.107 1.092.322 1.484s.695.588 1.442.588c.224 0 .467-.023.728-.07s.495-.117.7-.21l.112 2.632c-.299.112-.653.201-1.064.266s-.803.098-1.176.098c-.896 0-1.624-.126-2.184-.378s-1.003-.597-1.33-1.036-.551-.943-.672-1.512-.182-1.181-.182-1.834v-6.272z" fill="#27282a"/></g></svg>