<svg xmlns="http://www.w3.org/2000/svg" viewBox="0 0 24 24" fill="#0077B5">
  <path d="M19 0h-14c-2.761 0-5 2.239-5 5v14c0 2.761 2.239 5 5 5h14c2.762 0 5-2.239 5-5v-14c0-2.761-2.238-5-5-5zm-11 19h-3v-11h3v11zm-1.5-12.268c-.966 0-1.75-.79-1.75-1.764s.784-1.764 1.75-1.764 1.75.79 1.75 1.764-.783 1.764-1.75 1.764zm13.5 12.268h-3v-5.604c0-1.337-.025-3.041-1.852-3.041-1.853 0-2.136 1.448-2.136 2.944v5.701h-3v-11h2.882v1.502h.04c.402-.761 1.381-1.56 2.842-1.56 3.039 0 3.601 2.001 3.601 4.603v6.455z"/>
</svg>
