<svg viewBox="0 0 100 100" xmlns="http://www.w3.org/2000/svg">
  <path d="M96.06 51.05c0-3.42-.31-6.72-.88-9.89H50v18.7h25.82c-1.11 6.01-6.42 11.11-13.06 13.91v11.56h21.13c12.37-11.41 19.51-28.2 19.51-46.28z" fill="#4285F4"/>
  <path d="M50 98c12.96 0 23.83-4.3 31.78-11.66L60.65 74.78c-5.83 3.91-13.3 6.22-21.65 6.22-16.65 0-30.74-11.25-35.77-26.39H1.47v11.94C9.43 82.5 28.59 98 50 98z" fill="#34A853"/>
  <path d="M14.23 54.61C12.95 50.44 12.23 46 12.23 41.39s.72-9.05 2-13.22V16.23H1.47C.53 20.89 0 30.75 0 41.39s.53 20.5 1.47 25.16l12.76-11.94z" fill="#FBBC05"/>
  <path d="M50 12.22c7.05 0 13.38 2.43 18.36 7.18l13.78-13.78C73.81 1.41 62.94-3 50-3 28.59-3 9.43 12.5 1.47 28.17l12.76 11.94c5.03-15.14 19.12-26.39 35.77-26.39z" fill="#EA4335"/>
</svg>
