<svg viewBox="0 0 100 100" xmlns="http://www.w3.org/2000/svg">
  <path d="M84.7 54.7c-1.3-3.4-3-6.5-5.1-9.3-2.1-2.8-4.6-5.2-7.4-7.2-2.8-2-5.9-3.5-9.3-4.5-3.4-1-7-1.5-10.7-1.5-3.7 0-7.3.5-10.7 1.5-3.4 1-6.5 2.5-9.3 4.5-2.8 2-5.3 4.4-7.4 7.2-2.1 2.8-3.8 5.9-5.1 9.3C18.4 58.1 17.7 61.7 17.7 65.4c0 3.7.7 7.3 2 10.7 1.3 3.4 3 6.5 5.1 9.3 2.1 2.8 4.6 5.2 7.4 7.2 2.8 2 5.9 3.5 9.3 4.5 3.4 1 7 1.5 10.7 1.5s7.3-.5 10.7-1.5c3.4-1 6.5-2.5 9.3-4.5 2.8-2 5.3-4.4 7.4-7.2 2.1-2.8 3.8-5.9 5.1-9.3 1.3-3.4 2-7 2-10.7 0-3.7-.7-7.3-2-10.7z" fill="#336791"/>
  <path d="M43.7 21.2C30.6 21.2 20 31.8 20 44.9v20.5c0 3.7.7 7.3 2 10.7 1.3 3.4 3 6.5 5.1 9.3 2.1 2.8 4.6 5.2 7.4 7.2 2.8 2 5.9 3.5 9.3 4.5 3.4 1 7 1.5 10.7 1.5s7.3-.5 10.7-1.5c3.4-1 6.5-2.5 9.3-4.5 2.8-2 5.3-4.4 7.4-7.2 2.1-2.8 3.8-5.9 5.1-9.3 1.3-3.4 2-7 2-10.7V44.9c0-13.1-10.6-23.7-23.7-23.7z" fill="#336791"/>
</svg>
