<svg viewBox="0 0 24 24" fill="none" xmlns="http://www.w3.org/2000/svg">
  <rect x="2" y="2" width="20" height="20" rx="6" fill="#0F1333" stroke="#2D3748" strokeWidth="1.5"/>
  <!-- Gear -->
  <circle cx="12" cy="12" r="3" fill="none" stroke="#00D4B8" strokeWidth="2"/>
  <rect x="11" y="5" width="2" height="3" rx="1" fill="#00D4B8"/>
  <rect x="11" y="16" width="2" height="3" rx="1" fill="#00D4B8"/>
  <rect x="5" y="11" width="3" height="2" rx="1" fill="#00D4B8"/>
  <rect x="16" y="11" width="3" height="2" rx="1" fill="#00D4B8"/>
  <rect x="7" y="7" width="3" height="2" rx="1" fill="#00D4B8" transform="rotate(45 8.5 8)"/>
  <rect x="14" y="7" width="3" height="2" rx="1" fill="#00D4B8" transform="rotate(-45 15.5 8)"/>
  <rect x="7" y="15" width="3" height="2" rx="1" fill="#00D4B8" transform="rotate(-45 8.5 16)"/>
  <rect x="14" y="15" width="3" height="2" rx="1" fill="#00D4B8" transform="rotate(45 15.5 16)"/>
</svg>
