<svg viewBox="0 0 32 32" fill="none" xmlns="http://www.w3.org/2000/svg">
  <!-- AutoFlow logomark: gear with flow arrow -->
  <circle cx="16" cy="16" r="15" fill="#0F1333"/>
  <!-- Outer gear ring -->
  <circle cx="16" cy="16" r="12" fill="none" stroke="#00D4B8" strokeWidth="2"/>
  <!-- Gear teeth -->
  <rect x="15" y="2" width="2" height="4" rx="1" fill="#00D4B8"/>
  <rect x="15" y="26" width="2" height="4" rx="1" fill="#00D4B8"/>
  <rect x="2" y="15" width="4" height="2" rx="1" fill="#00D4B8"/>
  <rect x="26" y="15" width="4" height="2" rx="1" fill="#00D4B8"/>
  <rect x="5.5" y="5.5" width="4" height="2" rx="1" fill="#00D4B8" transform="rotate(45 7.5 6.5)"/>
  <rect x="22.5" y="5.5" width="4" height="2" rx="1" fill="#00D4B8" transform="rotate(-45 24.5 6.5)"/>
  <rect x="5.5" y="22.5" width="4" height="2" rx="1" fill="#00D4B8" transform="rotate(-45 7.5 23.5)"/>
  <rect x="22.5" y="22.5" width="4" height="2" rx="1" fill="#00D4B8" transform="rotate(45 24.5 23.5)"/>
  <!-- Inner circle -->
  <circle cx="16" cy="16" r="8" fill="#0F1333"/>
  <!-- Flow arrow inside -->
  <path d="M11 16 L15 13 L15 15 L20 15 L20 17 L15 17 L15 19 Z" fill="#00D4B8"/>
  <!-- Indigo accent dot -->
  <circle cx="16" cy="16" r="2" fill="#4A3AFF"/>
</svg>
