<svg viewBox="0 0 100 100" xmlns="http://www.w3.org/2000/svg">
  <path fill-rule="evenodd" clip-rule="evenodd" d="M50 0C22.385 0 0 22.385 0 50c0 22.09 14.325 40.83 34.19 47.44 2.5.46 3.41-1.08 3.41-2.41 0-1.18-.04-4.32-.07-8.48-13.91 3.02-16.84-6.7-16.84-6.7-2.27-5.77-5.55-7.3-5.55-7.3-4.54-3.1.34-3.04.34-3.04 5.02.35 7.67 5.16 7.67 5.16 4.46 7.64 11.7 5.43 14.55 4.15.45-3.23 1.74-5.43 3.17-6.68-11.11-1.26-22.78-5.56-22.78-24.71 0-5.46 1.95-9.92 5.14-13.41-.51-1.27-2.23-6.35.49-13.23 0 0 4.19-1.34 13.73 5.12 3.99-1.11 8.27-1.66 12.51-1.68 4.24.02 8.52.57 12.51 1.68 9.53-6.46 13.72-5.12 13.72-5.12 2.72 6.88 1.01 11.96.5 13.23 3.2 3.49 5.14 7.95 5.14 13.41 0 19.2-11.69 23.44-22.83 24.67 1.79 1.54 3.39 4.58 3.39 9.23 0 6.66-.06 12.03-.06 13.67 0 1.34.9 2.9 3.44 2.41C85.68 90.82 100 72.08 100 50c0-27.615-22.385-50-50-50z" fill="#181717"/>
</svg>
