<svg viewBox="0 0 100 100" xmlns="http://www.w3.org/2000/svg">
  <g fill="none" fill-rule="evenodd">
    <path d="M19 56.5a6.5 6.5 0 1 1 0 13H12.5a6.5 6.5 0 1 1 0-13H19z" fill="#E01E5A"/>
    <path d="M12.5 76a6.5 6.5 0 1 1-13 0v6.5a6.5 6.5 0 1 1 13 0V76z" fill="#E01E5A"/>
    <path d="M43.5 19a6.5 6.5 0 1 1-13 0v6.5a6.5 6.5 0 1 1 13 0V19z" fill="#36C5F0"/>
    <path d="M30.5 12.5a6.5 6.5 0 1 1 13 0H37a6.5 6.5 0 1 1-6.5-6.5z" fill="#36C5F0"/>
    <path d="M81 43.5a6.5 6.5 0 1 1 0-13h6.5a6.5 6.5 0 1 1 0 13H81z" fill="#2EB67D"/>
    <path d="M87.5 24a6.5 6.5 0 1 1 13 0v-6.5a6.5 6.5 0 1 1-13 0V24z" fill="#2EB67D"/>
    <path d="M56.5 81a6.5 6.5 0 1 1 13 0v-6.5a6.5 6.5 0 1 1-13 0v6.5z" fill="#ECB22E"/>
    <path d="M69.5 87.5a6.5 6.5 0 1 1-13 0h6.5a6.5 6.5 0 1 1 6.5 6.5z" fill="#ECB22E"/>
  </g>
</svg>
